<?xml version="1.0" encoding="UTF-8"?>
<svg version="1.1" xmlns="http://www.w3.org/2000/svg" width="2000" height="2000" viewBox="0 0 2000 2000">
<path d="M0 0 C117.81 0 235.62 0 357 0 C365.44130343 24.72096004 373.86516281 49.43963768 382.11040878 74.22549629 C383.79870141 79.29941849 385.48913027 84.37262767 387.17971802 89.44578552 C389.843752 97.44093971 392.50626321 105.43660004 395.16816151 113.43246549 C398.20951252 122.56787487 401.25266147 131.70268502 404.29592681 140.83745682 C410.53255288 159.55766034 416.76703373 178.27857765 423 197 C423.66 197 424.32 197 425 197 C426.55675367 194.96799472 428.00476179 192.92969193 429.4375 190.8125 C434.53934975 183.48039974 440.0935493 176.69341932 446 170 C446.43924805 169.49758789 446.87849609 168.99517578 447.33105469 168.47753906 C485.5518972 124.93014474 538.02752195 97.33531834 594.25 85.1875 C595.13421631 84.9925293 596.01843262 84.79755859 596.92944336 84.59667969 C613.47008973 81.21854498 630.24407312 80.70340637 647.06694031 80.73930359 C649.11228649 80.73627477 651.15763153 80.73238166 653.20297462 80.72771102 C658.76472278 80.71751636 664.32640587 80.71959083 669.88815916 80.72389162 C675.90948055 80.72637451 681.9307869 80.71732539 687.95210266 80.70985413 C699.72612782 80.69714814 711.50013493 80.6953026 723.27416434 80.69765439 C732.85156446 80.6994936 742.42895791 80.69771433 752.00635719 80.69342995 C753.38681306 80.69282752 754.76726892 80.69222632 756.14772478 80.69162634 C758.22844778 80.690719 760.30917078 80.68981033 762.38989378 80.68889399 C781.7127401 80.68047549 801.03558392 80.67612112 820.35843182 80.68030071 C821.08547972 80.68045709 821.81252763 80.68061346 822.5616073 80.68077458 C826.24580015 80.68158025 829.92999299 80.68242602 833.61418583 80.68328788 C834.71154285 80.68354451 834.71154285 80.68354451 835.83106869 80.68380633 C837.3104804 80.68415299 838.7898921 80.68450152 840.2693038 80.68485192 C863.27907903 80.6902068 886.28881591 80.6822808 909.29858398 80.66381836 C935.2060105 80.6430548 961.11341328 80.63238393 987.02084857 80.63639385 C989.7887537 80.63678913 992.55665884 80.63715069 995.32456398 80.63749123 C996.00599104 80.63758196 996.68741809 80.63767269 997.38949445 80.63776617 C1007.62996506 80.6389271 1017.87041151 80.63232246 1028.11087608 80.62167931 C1039.77157968 80.60957172 1051.4322398 80.60840746 1063.09294596 80.62046947 C1069.03227526 80.62632887 1074.97150158 80.62753969 1080.91082382 80.61546707 C1127.1411414 80.52784207 1127.1411414 80.52784207 1147 84 C1147.70734956 84.11944579 1148.41469912 84.23889159 1149.14348352 84.36195695 C1152.91791326 85.00583722 1156.64569379 85.75726722 1160.375 86.625 C1161.47529541 86.87660889 1162.57559082 87.12821777 1163.70922852 87.38745117 C1194.76466194 94.77971452 1225.92530724 107.33203156 1252 126 C1252.93070313 126.65742187 1253.86140625 127.31484375 1254.8203125 127.9921875 C1263.09103731 133.91301278 1270.94463447 140.31386873 1278.8125 146.75390625 C1279.78832031 147.55256104 1280.76414062 148.35121582 1281.76953125 149.17407227 C1282.87361328 150.07790649 1282.87361328 150.07790649 1284 151 C1291.84853738 128.18463116 1299.58610277 105.33384826 1307.20703125 82.44140625 C1307.59856258 81.26537212 1307.99009392 80.089338 1308.39348984 78.87766647 C1311.20199059 70.43999689 1314.00749937 62.00133368 1316.8125 53.5625 C1319.66404359 44.98413544 1322.51664636 36.40612558 1325.37170982 27.82893181 C1326.50138558 24.43344698 1327.62925428 21.03736548 1328.7570343 17.64125061 C1329.43925424 15.5909643 1330.1215564 13.54070534 1330.80395508 11.49047852 C1331.11499176 10.55220215 1331.42602844 9.61392578 1331.74649048 8.6472168 C1332.03054245 7.79499039 1332.31459442 6.94276398 1332.60725403 6.06471252 C1332.85362515 5.32337853 1333.09999628 4.58204454 1333.3538332 3.81824589 C1334 2 1334 2 1335 0 C1452.81 0 1570.62 0 1692 0 C1690.76720692 5.54756884 1689.60899993 10.54730916 1687.83555692 15.85902071 C1687.52045836 16.80894972 1687.52045836 16.80894972 1687.19899416 17.77806921 C1686.4992835 19.88384657 1685.79320561 21.98742999 1685.08710384 24.09107208 C1684.5747679 25.62847874 1684.06282902 27.16601776 1683.55124983 28.7036764 C1682.14316057 32.93215953 1680.72945763 37.15874745 1679.31484604 41.38505229 C1677.77728609 45.982009 1676.24498956 50.58072001 1674.71203762 55.17921495 C1672.02422992 63.23961622 1669.33309848 71.2989017 1666.63979912 79.35746956 C1662.63483335 91.34073817 1658.6350698 103.32573849 1654.63645571 115.31112783 C1647.90942755 135.47425695 1641.17846284 155.63606979 1634.44552422 175.79722595 C1625.04036722 203.96039763 1615.64237543 232.12595712 1606.24617636 260.29211854 C1602.39587727 271.83379543 1598.54532057 283.37538638 1594.6947451 294.91697106 C1594.26248551 296.21261138 1593.83022654 297.50825189 1593.39796817 298.80389261 C1583.21160362 329.33623663 1573.02294441 359.86781474 1562.8333739 390.39908898 C1562.157302 392.42482188 1561.48123249 394.45055558 1560.80516333 396.4762894 C1550.39059647 427.68183913 1539.97485651 458.88699701 1529.55712891 490.0914917 C1529.10439284 491.447587 1528.65165684 492.80368231 1528.1989209 494.15977765 C1526.16450873 500.25351739 1524.13008876 506.34725452 1522.09566787 512.44099134 C1521.19325982 515.14399053 1520.29085252 517.84698996 1519.38844513 520.54998937 C1518.71233388 522.57515738 1518.03622093 524.60032481 1517.36010789 526.62549222 C1507.1761959 557.12950564 1496.99363824 587.63396978 1486.8166132 618.14028168 C1486.60273681 618.78138827 1486.38886042 619.42249487 1486.16850293 620.08302894 C1481.68448146 633.52417779 1477.20081822 646.9654461 1472.71763696 660.40687522 C1470.6183058 666.70103876 1468.51889174 672.99517465 1466.41942024 679.28929138 C1465.79961789 681.14743239 1465.79961789 681.14743239 1465.16729427 683.0431116 C1458.50974068 703.001487 1451.84552322 722.95763123 1445.17866386 742.91289984 C1438.48259852 762.95593239 1431.79286543 783.00106895 1425.10970741 803.0484091 C1421.13647007 814.9661564 1417.158153 826.88218031 1413.17265686 838.79583379 C1410.5130431 846.7477141 1407.85992705 854.70174249 1405.21213791 862.65756789 C1403.70199047 867.19448036 1402.18897148 871.73037983 1400.66801827 876.26368243 C1399.28472244 880.38686502 1397.90973109 884.51271921 1396.5413378 888.64087073 C1396.04766155 890.12530864 1395.55095582 891.60874332 1395.05087009 893.09103426 C1392.58801198 900.39639221 1390.5515123 907.27408066 1390 915 C1388.98289871 917.34813023 1388.98289871 917.34813023 1387.74737549 919.17445374 C1384.15529215 925.14234985 1382.19837077 931.6206341 1380.04199219 938.20874023 C1379.57075641 939.62578338 1379.0987184 941.04255995 1378.62594604 942.45909119 C1377.35373372 946.27826114 1376.09256719 950.10099564 1374.83336544 953.92447162 C1373.51124949 957.9322583 1372.17858118 961.9365328 1370.84698486 965.94117737 C1368.33023644 973.51516678 1365.82242562 981.09208234 1363.31808209 988.67018133 C1359.63601394 999.81068501 1355.94038514 1010.94669058 1352.24483109 1022.08272648 C1351.69993861 1023.72475079 1351.15505103 1025.36677672 1350.61016846 1027.00880432 C1350.34423803 1027.81014535 1350.0783076 1028.61148639 1349.80431867 1029.43711048 C1348.2223643 1034.20509731 1346.64298366 1038.97392712 1345.0658946 1043.74352539 C1344.08768619 1046.7014832 1343.10837831 1049.65907635 1342.12891006 1052.6166172 C1341.67403921 1053.99111573 1341.21970382 1055.36579159 1340.76593399 1056.74065399 C1340.14827111 1058.61196984 1339.52862898 1060.48263205 1338.90887451 1062.35325623 C1338.38904558 1063.92581507 1338.38904558 1063.92581507 1337.85871506 1065.53014278 C1337 1068 1337 1068 1336 1070 C1012.6 1070 689.2 1070 356 1070 C339.90749724 1022.87195619 339.90749724 1022.87195619 334.93618965 1007.93999672 C334.33673921 1006.14330901 333.73716015 1004.34666421 333.13746959 1002.55005664 C331.53670432 997.75315739 329.93769944 992.95567319 328.33906446 988.15806365 C326.58195838 982.88599739 324.82310456 977.61451415 323.06450069 972.34294736 C319.59849528 961.95241505 316.13404996 951.56136322 312.67012135 941.1701384 C308.72757627 929.34337863 304.78348113 917.51713595 300.83928242 905.69092759 C290.82716988 875.67077606 280.81796775 845.64965447 270.80927783 815.6283617 C265.82515759 800.67839292 260.8406435 785.72855546 255.85605875 770.77874155 C239.84907745 722.77044334 223.84265221 674.76195978 207.83844378 626.75273711 C207.07592169 624.46533308 206.31339861 622.17792938 205.55087522 619.89052579 C204.02180769 615.30365698 202.49274115 610.71678785 200.96367466 606.12991869 C199.17378203 600.76062768 197.38388858 595.39133694 195.59399364 590.0220467 C195.08172755 588.48536083 194.56946175 586.94867486 194.05719626 585.41198879 C177.5671218 535.94532302 161.07357824 486.47981507 144.57759401 437.01511979 C132.70281691 401.40752384 120.82841735 365.79980232 108.957304 330.19098473 C108.71339436 329.4593493 108.46948473 328.72771387 108.21818389 327.97390768 C102.86523491 311.91707927 97.51254455 295.86016466 92.16009505 279.80316975 C90.24542211 274.05928709 88.33072732 268.31541171 86.4160208 262.57154024 C85.939724 261.14271142 85.46342818 259.71388227 84.98713333 258.2850528 C77.3945144 235.50811623 69.79918051 212.73208615 62.2024681 189.95651458 C54.56259915 167.05149801 46.925583 144.14553236 39.2925188 121.23824716 C34.55548639 107.0221324 29.81602809 92.80683212 25.07253825 78.5928706 C22.05169815 69.54004505 19.03408874 60.48614699 16.01917543 51.43134589 C14.29807833 46.26262326 12.57551911 41.09439999 10.8490472 35.92746992 C9.28162188 31.2364361 7.71827169 26.54406577 6.15829609 21.85054951 C5.59389216 20.15488277 5.02794797 18.45972781 4.46035594 16.76512557 C3.69504044 14.47948708 2.93520663 12.19210015 2.17680466 9.90416014 C1.95299393 9.24013645 1.7291832 8.57611275 1.49859033 7.89196713 C0.58529844 5.11934652 0 2.94394138 0 0 Z " fill="#004AAC" transform="translate(154,465)"/>
<path d="M0 0 C2.04534618 -0.00302882 4.09069122 -0.00692193 6.13603431 -0.01159257 C11.69778247 -0.02178723 17.25946556 -0.01971275 22.82121885 -0.01541197 C28.84254024 -0.01292908 34.8638466 -0.0219782 40.88516235 -0.02944946 C52.65918751 -0.04215545 64.43319462 -0.04400099 76.20722403 -0.0416492 C85.78462415 -0.03980999 95.3620176 -0.04158925 104.93941689 -0.04587364 C106.31987275 -0.04647607 107.70032861 -0.04707727 109.08078447 -0.04767724 C111.16150748 -0.04858459 113.24223048 -0.04949326 115.32295347 -0.0504096 C134.64579979 -0.0588281 153.96864361 -0.06318247 173.29149151 -0.05900288 C174.01853942 -0.0588465 174.74558733 -0.05869012 175.49466699 -0.05852901 C179.17885984 -0.05772334 182.86305268 -0.05687756 186.54724552 -0.05601571 C187.64460254 -0.05575908 187.64460254 -0.05575908 188.76412839 -0.05549726 C190.24354009 -0.0551506 191.72295179 -0.05480207 193.20236349 -0.05445167 C216.21213872 -0.04909679 239.2218756 -0.05702279 262.23164368 -0.07548523 C288.13907019 -0.09624879 314.04647297 -0.10691966 339.95390826 -0.10290974 C342.7218134 -0.10251446 345.48971853 -0.1021529 348.25762367 -0.10181236 C348.93905073 -0.10172163 349.62047778 -0.1016309 350.32255414 -0.10153742 C360.56302475 -0.10037648 370.8034712 -0.10698112 381.04393578 -0.11762428 C392.70463937 -0.12973187 404.36529949 -0.13089613 416.02600565 -0.11883412 C421.96533495 -0.11297472 427.90456127 -0.1117639 433.84388351 -0.12383652 C480.07420109 -0.21146152 480.07420109 -0.21146152 499.93305969 3.26069641 C500.64040925 3.38014221 501.34775882 3.499588 502.07654321 3.62265337 C505.85097295 4.26653363 509.57875348 5.01796363 513.30805969 5.88569641 C514.4083551 6.1373053 515.50865051 6.38891418 516.64228821 6.64814758 C547.69772163 14.04041093 578.85836694 26.59272797 604.93305969 45.26069641 C605.86376282 45.91811829 606.79446594 46.57554016 607.75337219 47.25288391 C613.08765629 51.07157754 618.29284451 55.0256522 623.35884094 59.19429016 C625.20891331 60.67940136 627.10933266 62.10258235 629.03852844 63.48335266 C630.56413391 64.61063782 630.56413391 64.61063782 632.12055969 65.76069641 C633.06286438 66.43100891 634.00516907 67.10132141 634.97602844 67.79194641 C636.93305969 70.26069641 636.93305969 70.26069641 636.78058892 73.7008965 C635.92418034 79.2151558 634.10932057 84.41301681 632.32962322 89.68624496 C631.76345907 91.39339124 631.76345907 91.39339124 631.18585727 93.13502532 C630.13727451 96.2917221 629.08201994 99.44604256 628.02388823 102.59954176 C626.8739782 106.0320654 625.73280145 109.46749212 624.5905121 112.90255761 C622.58722827 118.92277136 620.57838269 124.94110646 618.56588554 130.95824623 C615.57276051 139.90743756 612.58824706 148.85948384 609.60549224 157.81213607 C604.58465044 172.88123352 599.55682335 187.94799157 594.52503014 203.01343536 C589.53472742 217.95473249 584.54754238 232.89706428 579.56449318 247.84078217 C579.25437539 248.77079183 578.9442576 249.7008015 578.6247423 250.65899328 C577.04952639 255.38294914 575.47436598 260.1069235 573.89922694 264.83090499 C562.73429219 298.31520116 551.56240473 331.79717382 540.38642883 365.27778625 C529.55872811 397.71510184 518.73411489 430.15344498 507.91377258 462.59321594 C507.58113829 463.59046119 507.24850399 464.58770645 506.90578987 465.61517125 C503.56398762 475.63398287 500.22224987 485.652816 496.88056044 495.67166526 C490.04191582 516.17487037 483.20286163 536.67793886 476.36355591 557.18092346 C476.04822871 558.12621862 475.7329015 559.07151377 475.40801893 560.04545424 C460.19612341 605.64791375 444.97890318 651.24859621 429.75953484 696.84856224 C429.37497171 698.00078346 429.37497171 698.00078346 428.98263963 699.17628188 C427.72325619 702.94961523 426.46385989 706.72294428 425.20444439 710.49626693 C422.86542412 717.50424278 420.52660884 724.5122869 418.18834722 731.52051592 C417.32702191 734.10202093 416.46568536 736.68352218 415.60434532 739.26502228 C415.19608099 740.48863328 414.78781665 741.71224428 414.36718067 742.9729344 C412.25836673 749.29236025 410.14771391 755.61116391 408.0336532 761.92883651 C406.92988912 765.22757608 405.82718532 768.52666951 404.72462735 771.82581237 C404.04846886 773.84753841 403.370666 775.86870656 402.69270152 777.88982749 C398.98764272 788.97927808 395.47955249 800.11457619 391.93305969 811.26069641 C264.55305969 811.26069641 137.17305969 811.26069641 5.93305969 811.26069641 C1.31305969 797.07069641 -3.30694031 782.88069641 -8.06694031 768.26069641 C-10.88261969 759.74372872 -13.70374868 751.22919876 -16.54740906 742.72163391 C-17.26021655 740.58509263 -17.97288442 738.44850476 -18.6854248 736.31187439 C-20.50589909 730.85415482 -22.32817382 725.39703833 -24.15092468 719.94007874 C-26.0205638 714.34160571 -27.88839227 708.74252863 -29.75639343 703.14350891 C-32.75474203 694.15710759 -35.75409116 685.1710411 -38.75497437 676.18548584 C-39.14731262 675.01063881 -39.14731262 675.01063881 -39.5475769 673.8120575 C-39.76998141 673.14614279 -39.99238592 672.48022808 -40.22152996 671.79413414 C-40.95552242 669.59458195 -41.68895008 667.39484302 -42.42216223 665.19503063 C-44.02405289 660.3892168 -45.62637411 655.58354663 -47.22879982 650.77791119 C-47.86403652 648.87282428 -48.49927314 646.96773734 -49.13450968 645.06265038 C-49.47154365 644.05188399 -49.80857762 643.04111759 -50.15582474 641.99972191 C-52.03345325 636.36869569 -53.91105904 630.7376619 -55.78866577 625.10662842 C-56.19230883 623.89608347 -56.59595189 622.68553852 -57.01182655 621.4383104 C-69.84207129 582.95974987 -82.67192998 544.48106067 -95.50062561 506.00198364 C-95.7526072 505.24617693 -96.00458879 504.49037021 -96.26420619 503.71166026 C-101.73542206 487.30100306 -107.20657167 470.89032376 -112.67765359 454.4796219 C-115.35688252 446.44318229 -118.03612628 438.40674763 -120.71537781 430.37031555 C-120.98197523 429.57065404 -121.24857266 428.77099253 -121.52324879 427.94709884 C-130.17721713 401.98946141 -138.83216031 376.03214914 -147.48760368 350.07500351 C-156.38682292 323.38677182 -165.28506245 296.69821369 -174.18206331 270.00924238 C-175.43746557 266.24332378 -176.69287906 262.47740892 -177.94829941 258.71149635 C-178.19537642 257.97033274 -178.44245343 257.22916913 -178.69701763 256.46554601 C-182.67831042 244.5228505 -186.66064051 232.58050112 -190.64335641 220.63828014 C-194.64212429 208.64785387 -198.63980716 196.6570663 -202.63637115 184.66590526 C-204.8027722 178.16600692 -206.96966155 171.66627234 -209.13791084 165.16699028 C-211.12031296 159.22462576 -213.10134781 153.28180733 -215.08126704 147.3386151 C-215.80004541 145.1818551 -216.51933797 143.02526639 -217.2391798 140.8688611 C-218.21308532 137.95112301 -219.18516304 135.0327824 -220.15676308 132.11427593 C-220.44045635 131.26582311 -220.72414963 130.41737029 -221.01643968 129.54320678 C-221.27449997 128.7667786 -221.53256027 127.99035041 -221.79844058 127.1903941 C-222.02097763 126.52293892 -222.24351468 125.85548374 -222.47279529 125.16780264 C-224.21238352 119.58401511 -224.21238352 119.58401511 -223.25346375 117.4523468 C-222.59652527 116.5395697 -222.59652527 116.5395697 -221.92631531 115.60835266 C-221.43832458 114.92087952 -220.95033386 114.23340637 -220.44755554 113.52510071 C-219.90945251 112.79847229 -219.37134949 112.07184387 -218.81694031 111.32319641 C-218.26916931 110.56756409 -217.72139832 109.81193176 -217.1570282 109.03340149 C-212.1126002 102.15569253 -206.73237605 95.63122811 -201.06694031 89.26069641 C-200.63059265 88.76263489 -200.194245 88.26457336 -199.74467468 87.75141907 C-161.52577155 44.19602465 -109.04424173 16.59705692 -52.81694031 4.44819641 C-51.932724 4.25322571 -51.04850769 4.058255 -50.13749695 3.8573761 C-33.59685058 0.47924139 -16.82286718 -0.03589722 0 0 Z " fill="#FEFEFE" transform="translate(801.0669403076172,545.7393035888672)"/>
<path d="M0 0 C2.04534618 -0.00302882 4.09069122 -0.00692193 6.13603431 -0.01159257 C11.69778247 -0.02178723 17.25946556 -0.01971275 22.82121885 -0.01541197 C28.84254024 -0.01292908 34.8638466 -0.0219782 40.88516235 -0.02944946 C52.65918751 -0.04215545 64.43319462 -0.04400099 76.20722403 -0.0416492 C85.78462415 -0.03980999 95.3620176 -0.04158925 104.93941689 -0.04587364 C106.31987275 -0.04647607 107.70032861 -0.04707727 109.08078447 -0.04767724 C111.16150748 -0.04858459 113.24223048 -0.04949326 115.32295347 -0.0504096 C134.64579979 -0.0588281 153.96864361 -0.06318247 173.29149151 -0.05900288 C174.01853942 -0.0588465 174.74558733 -0.05869012 175.49466699 -0.05852901 C179.17885984 -0.05772334 182.86305268 -0.05687756 186.54724552 -0.05601571 C187.64460254 -0.05575908 187.64460254 -0.05575908 188.76412839 -0.05549726 C190.24354009 -0.0551506 191.72295179 -0.05480207 193.20236349 -0.05445167 C216.21213872 -0.04909679 239.2218756 -0.05702279 262.23164368 -0.07548523 C288.13907019 -0.09624879 314.04647297 -0.10691966 339.95390826 -0.10290974 C342.7218134 -0.10251446 345.48971853 -0.1021529 348.25762367 -0.10181236 C348.93905073 -0.10172163 349.62047778 -0.1016309 350.32255414 -0.10153742 C360.56302475 -0.10037648 370.8034712 -0.10698112 381.04393578 -0.11762428 C392.70463937 -0.12973187 404.36529949 -0.13089613 416.02600565 -0.11883412 C421.96533495 -0.11297472 427.90456127 -0.1117639 433.84388351 -0.12383652 C480.07420109 -0.21146152 480.07420109 -0.21146152 499.93305969 3.26069641 C500.64040925 3.38014221 501.34775882 3.499588 502.07654321 3.62265337 C505.85097295 4.26653363 509.57875348 5.01796363 513.30805969 5.88569641 C514.4083551 6.1373053 515.50865051 6.38891418 516.64228821 6.64814758 C547.69772163 14.04041093 578.85836694 26.59272797 604.93305969 45.26069641 C605.86376282 45.91811829 606.79446594 46.57554016 607.75337219 47.25288391 C613.08765629 51.07157754 618.29284451 55.0256522 623.35884094 59.19429016 C625.20891331 60.67940136 627.10933266 62.10258235 629.03852844 63.48335266 C630.56413391 64.61063782 630.56413391 64.61063782 632.12055969 65.76069641 C633.06286438 66.43100891 634.00516907 67.10132141 634.97602844 67.79194641 C636.93305969 70.26069641 636.93305969 70.26069641 636.81440067 73.60033417 C635.86683008 79.69468193 633.75394399 85.46920922 631.78863525 91.29524231 C631.34990338 92.61362047 630.91183137 93.93221837 630.47435957 95.25101519 C629.27477671 98.8609104 628.06589595 102.46763171 626.85543716 106.07389212 C625.55006945 109.96836125 624.25339861 113.86572529 622.95565796 117.76274109 C620.70752753 124.50975148 618.45392064 131.25491216 616.19656181 137.99884033 C612.93282659 147.74937507 609.67739915 157.50266739 606.42397923 167.25664812 C601.14503232 183.08255135 595.85939266 198.90621077 590.5695343 214.72846985 C585.43157542 230.09643689 580.29677494 245.46545323 575.16621399 260.83589172 C574.69167578 262.25753593 574.69167578 262.25753593 574.20755094 263.70790023 C572.62045839 268.46265258 571.03342787 273.21742563 569.44642818 277.97220898 C556.28491964 317.40491852 543.11254501 356.83399184 529.93305969 396.26069641 C526.50648954 394.54741133 526.06241019 390.40891167 524.87055969 386.94819641 C514.29058329 357.36344758 499.36010549 328.99824953 479.93305969 304.26069641 C479.09573271 303.15758306 478.25985553 302.0533681 477.42524719 300.94819641 C470.4885684 291.83739215 462.90843223 283.46960841 454.93305969 275.26069641 C454.20570618 274.51142883 453.47835266 273.76216125 452.72895813 272.9901886 C444.18200539 264.22584834 435.68549356 255.6876617 425.93305969 248.26069641 C424.93403625 247.46792297 423.93501282 246.67514954 422.90571594 245.85835266 C379.68867912 211.69644011 328.94003797 191.34817358 274.93305969 182.26069641 C274.23904053 182.13254547 273.54502136 182.00439453 272.82997131 181.87236023 C257.69178972 179.07921479 242.79951893 178.74343726 227.43305969 178.82319641 C226.19327362 178.82623779 224.95348755 178.82927917 223.6761322 178.83241272 C205.73215312 178.89758824 188.52314213 179.49500347 170.93305969 183.26069641 C169.78192688 183.4909552 168.63079407 183.72121399 167.44477844 183.95845032 C155.45742962 186.35817334 143.62844373 188.98511621 132.11274719 193.12397766 C128.99509828 194.238518 125.86591981 195.16437476 122.68305969 196.07319641 C70.47159342 212.03024601 17.49452684 248.45638086 -15.94389343 291.55488586 C-18.00093267 294.17657008 -20.12497098 296.72709494 -22.26615906 299.28022766 C-27.19126894 305.29387645 -31.59270313 311.59494137 -35.87944031 318.07319641 C-36.26679352 318.656185 -36.65414673 319.23917358 -37.05323792 319.83982849 C-52.30148117 342.85653857 -63.95654674 367.2274176 -73.06694031 393.26069641 C-73.44463562 394.31257141 -73.82233093 395.36444641 -74.21147156 396.44819641 C-79.61510058 411.94864618 -83.30721079 428.09699029 -86.06694031 444.26069641 C-86.21937195 445.11131653 -86.37180359 445.96193665 -86.52885437 446.83833313 C-90.78096158 471.63923057 -89.34811204 497.20177054 -89.06694031 522.26069641 C-91.18432321 519.08462206 -92.16622335 516.33658499 -93.37173557 512.71824741 C-93.7090457 511.71195872 -93.7090457 511.71195872 -94.05317017 510.68534097 C-94.81038414 508.42268751 -95.56112693 506.15793922 -96.31195068 503.89315796 C-96.8570542 502.25987056 -97.40255212 500.62671475 -97.94841188 498.99367994 C-99.45102925 494.49450277 -100.94800273 489.99346484 -102.44408715 485.4921118 C-104.05707037 480.64229171 -105.67522843 475.79419853 -107.29275513 470.94589233 C-110.46222193 461.44313439 -113.6268912 451.93878531 -116.78998811 442.43390543 C-120.47114591 431.37292259 -124.15712131 420.3135472 -127.8433352 409.25424855 C-134.41898986 389.52559526 -140.99040116 369.79553119 -147.55937195 350.06465149 C-153.93833236 330.90451298 -160.32001914 311.7452856 -166.70487976 292.58711243 C-167.09807233 291.40731196 -167.49126489 290.2275115 -167.89637239 289.0119595 C-168.68843023 286.63534337 -169.48048825 284.25872729 -170.27254644 281.88211128 C-170.66323288 280.70983239 -171.05391932 279.5375535 -171.45644474 278.32975101 C-171.84612496 277.16049438 -172.23580517 275.99123775 -172.63729388 274.7865491 C-178.71494891 256.54988495 -184.79030553 238.31245505 -190.86534511 220.07491951 C-193.06968881 213.45744967 -195.27433307 206.84008005 -197.47918446 200.22277934 C-200.9764313 189.72661016 -204.47267843 179.23010914 -207.96687777 168.73292501 C-209.56421214 163.93430576 -211.1620135 159.1358434 -212.76109695 154.3378067 C-214.22358363 149.94956172 -215.68468871 145.56085932 -217.14466637 141.17177897 C-217.67438299 139.58011381 -218.20460737 137.98861753 -218.7353778 136.39730347 C-219.45429132 134.24165328 -220.17137525 132.08540309 -220.88798618 129.92898655 C-221.48726739 128.12927319 -221.48726739 128.12927319 -222.09865528 126.29320198 C-224.2290687 119.62110607 -224.2290687 119.62110607 -223.25346375 117.4523468 C-222.59652527 116.5395697 -222.59652527 116.5395697 -221.92631531 115.60835266 C-221.43832458 114.92087952 -220.95033386 114.23340637 -220.44755554 113.52510071 C-219.90945251 112.79847229 -219.37134949 112.07184387 -218.81694031 111.32319641 C-218.26916931 110.56756409 -217.72139832 109.81193176 -217.1570282 109.03340149 C-212.1126002 102.15569253 -206.73237605 95.63122811 -201.06694031 89.26069641 C-200.63059265 88.76263489 -200.194245 88.26457336 -199.74467468 87.75141907 C-161.52577155 44.19602465 -109.04424173 16.59705692 -52.81694031 4.44819641 C-51.932724 4.25322571 -51.04850769 4.058255 -50.13749695 3.8573761 C-33.59685058 0.47924139 -16.82286718 -0.03589722 0 0 Z " fill="#FE751F" transform="translate(801.0669403076172,545.7393035888672)"/>
<path d="M0 0 C0.70285631 -0.00382555 1.40571262 -0.00765109 2.12986761 -0.01159257 C4.46105149 -0.02182728 6.79198466 -0.01794879 9.1231842 -0.01396179 C10.80432358 -0.01831352 12.48546098 -0.02349821 14.16659546 -0.02944946 C18.71619019 -0.0428003 23.26570165 -0.04342256 27.81531215 -0.04088616 C31.61990954 -0.03981391 35.42449026 -0.04470627 39.22908407 -0.04949158 C48.20746877 -0.06057298 57.18581161 -0.06103171 66.16419983 -0.05497742 C75.41302923 -0.04893649 84.66170655 -0.0612548 93.91051 -0.08254749 C101.8648961 -0.10018382 109.81923387 -0.10616168 117.77363878 -0.10290974 C122.51846586 -0.10110017 127.26318441 -0.10370061 132.0079937 -0.11762428 C136.47076598 -0.1302313 140.93330169 -0.12823142 145.39607048 -0.11521339 C147.02904339 -0.11285441 148.6620331 -0.11555788 150.29498672 -0.12383652 C170.4909783 -0.21880225 170.4909783 -0.21880225 177.94374084 6.51069641 C178.57022522 7.05210266 179.19670959 7.59350891 179.84217834 8.15132141 C184.60267029 13.96730705 185.0091824 19.73511356 185.01014709 26.95600891 C185.02995888 28.32171524 185.02995888 28.32171524 185.0501709 29.7150116 C185.09084147 32.60527166 185.11267813 35.49521611 185.13124084 38.38569641 C185.15507789 41.28322179 185.18324903 44.18045225 185.22302246 47.07780457 C185.24725835 48.87516496 185.26221524 50.67268123 185.26663208 52.47019958 C185.32142603 56.86969597 185.57240331 60.24559584 187.56874084 64.26069641 C187.89874084 65.25069641 188.22874084 66.24069641 188.56874084 67.26069641 C190.99257161 68.43023057 190.99257161 68.43023057 193.56874084 69.26069641 C194.22874084 69.59069641 194.88874084 69.92069641 195.56874084 70.26069641 C197.72228824 70.36706814 199.87918203 70.40739343 202.0353241 70.41891479 C202.70673553 70.42385277 203.37814697 70.42879075 204.06990421 70.43387836 C206.33009328 70.44929302 208.59025386 70.45762467 210.85047913 70.46601868 C212.4665197 70.47559409 214.08255775 70.48560397 215.69859314 70.49601746 C220.09501261 70.52310912 224.49144286 70.54409557 228.88789988 70.56401944 C233.47903323 70.58585276 238.07013319 70.61325441 242.66123962 70.64007568 C251.35931634 70.69003854 260.05741155 70.73496401 268.75552452 70.77809805 C278.65625098 70.82743976 288.55694394 70.88236924 298.45763803 70.93777764 C318.82797444 71.05165283 339.19834282 71.15847978 359.56874084 71.26069641 C358.46298194 76.52527106 357.23038449 81.6501199 355.5216217 86.75849915 C355.12458542 87.9526091 354.72754913 89.14671906 354.31848145 90.37701416 C353.89032393 91.64948709 353.46202163 92.92191132 353.03358459 94.19429016 C352.59008227 95.52173321 352.14693764 96.8492958 351.70413208 98.17697144 C350.7814561 100.9404264 349.85586538 103.70288015 348.9278717 106.46455383 C347.73783453 110.00620192 346.55311233 113.54959862 345.37027645 117.09365749 C344.45798656 119.82637736 343.54399974 122.55852694 342.62938118 125.29046822 C342.19172503 126.59774052 341.75434933 127.90510675 341.31725883 129.21256828 C340.70856545 131.03179041 340.09757178 132.8502424 339.48646545 134.6686554 C339.13942062 135.70296188 338.79237579 136.73726837 338.43481445 137.80291748 C337.56874084 140.26069641 337.56874084 140.26069641 336.56874084 142.26069641 C335.80875384 142.26308476 335.04876684 142.26547312 334.26574993 142.26793385 C315.78832952 142.32702536 297.31104335 142.4025377 278.83376598 142.49641132 C269.89834966 142.54141007 260.96297356 142.58081524 252.02748108 142.60713196 C244.24087282 142.6300791 236.45439141 142.6634401 228.66788369 142.70939797 C224.54354572 142.73337471 220.41933372 142.75207422 216.2949276 142.75831032 C212.41496367 142.76434118 208.53532226 142.78426786 204.65547752 142.81497192 C203.22964718 142.82378439 201.80377473 142.82746812 200.37791824 142.82570457 C198.43462751 142.82405956 196.49135033 142.84246869 194.54815674 142.86196899 C193.45951922 142.86657796 192.37088171 142.87118692 191.24925518 142.87593555 C188.54770193 143.04444879 188.54770193 143.04444879 186.71784496 144.65101051 C185.16088356 146.83203029 185.20298711 148.2735782 185.2157135 150.94062805 C185.21022995 152.36339806 185.21022995 152.36339806 185.20463562 153.81491089 C185.21857864 155.35235207 185.21857864 155.35235207 185.23280334 156.92085266 C185.22028161 159.09858996 185.20724408 161.27632435 185.19374084 163.45405579 C185.18982462 166.88148991 185.19367833 170.30863237 185.20838928 173.73603821 C185.21701626 177.04807829 185.19516995 180.35891793 185.17030334 183.67085266 C185.18364716 184.68164383 185.19699097 185.692435 185.21073914 186.7338562 C185.13176325 194.42985258 183.28030085 201.00572948 178.12602234 206.91464233 C172.76401765 211.74313954 167.0862425 212.51018048 160.10551453 212.52812195 C159.00985768 212.53491862 159.00985768 212.53491862 157.89206636 212.54185259 C155.45561276 212.55446684 153.01938355 212.55287818 150.582901 212.55122375 C148.83146885 212.55721083 147.08003934 212.56401679 145.32861328 212.57157898 C140.57856877 212.58922696 135.82859634 212.59393383 131.07852221 212.59521055 C128.10914265 212.59663327 125.13978136 212.60090513 122.17040634 212.60620499 C111.8064279 212.62470055 101.44250087 212.6328761 91.07850647 212.63130188 C81.42522238 212.63010027 71.7721618 212.65120765 62.11893427 212.68278921 C53.82405409 212.70895757 45.5292469 212.71966896 37.23432577 212.71839106 C32.28322384 212.71788164 27.33232064 212.72355413 22.38125992 212.74474716 C17.72394865 212.76413921 13.06702551 212.76424741 8.40970039 212.7497139 C6.70373911 212.74762598 4.99775346 212.75232573 3.29183388 212.76443481 C-12.77387389 212.87105785 -12.77387389 212.87105785 -19.43125916 208.26069641 C-25.56305484 202.12890073 -27.80295522 196.23896127 -27.81893921 187.71517944 C-27.82432475 186.98797068 -27.82971028 186.26076191 -27.83525902 185.51151651 C-27.84948615 183.091878 -27.84244814 180.67279063 -27.83531189 178.25312805 C-27.84101821 176.51139895 -27.84798348 174.76967359 -27.85610962 173.0279541 C-27.87402703 168.30891961 -27.87287533 163.5900712 -27.86716723 158.87101293 C-27.8640734 154.92718625 -27.87017 150.98339521 -27.87620598 147.03957361 C-27.89024488 137.73377505 -27.88869513 128.4280683 -27.87730408 119.12226868 C-27.86582267 109.53086765 -27.87990038 99.93974624 -27.90670055 90.34838206 C-27.92887096 82.10442739 -27.93549193 73.8605604 -27.92962414 65.61657804 C-27.92625667 60.696802 -27.92865573 55.7772052 -27.94587517 50.8574543 C-27.96136364 46.23047995 -27.95736769 41.60391926 -27.93857002 36.97696114 C-27.93488944 35.28229348 -27.93797712 33.58759504 -27.94845581 31.89295578 C-28.00345722 22.26000579 -28.02341923 14.79830121 -21.57188416 7.01850891 C-20.94797791 6.47968079 -20.32407166 5.94085266 -19.68125916 5.38569641 C-19.06766541 4.83139954 -18.45407166 4.27710266 -17.82188416 3.70600891 C-12.37396487 0.41233222 -6.23195563 0.01024026 0 0 Z " fill="#FE751F" transform="translate(949.4312591552734,933.7393035888672)"/>
<path d="M0 0 C3.49543452 4.23613374 6.61646613 8.68354213 9.75 13.1875 C14.28711285 19.65137892 18.92767078 25.94191623 24 32 C24.78632812 32.97066406 25.57265625 33.94132812 26.3828125 34.94140625 C32.85092348 42.80870243 39.88346542 50.09676496 47.0625 57.3125 C47.97209473 58.2312793 48.88168945 59.15005859 49.81884766 60.09667969 C55.90463661 66.15511924 62.26343054 71.67881782 69 77 C69.59192139 77.47687256 70.18384277 77.95374512 70.79370117 78.44506836 C106.96894409 107.53804077 149.48654826 127.88818683 194.375 139.3125 C195.27605469 139.54291992 196.17710937 139.77333984 197.10546875 140.01074219 C212.67983401 143.80406935 227.66573103 145.4693303 243.65625 145.43359375 C245.49638049 145.43817727 247.33650929 145.44348908 249.17663574 145.44947815 C253.00877896 145.45833432 256.840713 145.4560761 260.67285156 145.44604492 C264.54351487 145.43688349 268.41357343 145.44371899 272.28417969 145.46655273 C293.85150185 145.59306205 314.809583 145.54311397 336 141 C336.73756531 140.84868622 337.47513062 140.69737244 338.23504639 140.54147339 C342.42956045 139.67034344 346.55887906 138.6407671 350.6875 137.5 C351.91605713 137.16524658 353.14461426 136.83049316 354.41040039 136.4855957 C389.04828274 126.80198433 421.03127777 110.6625214 451 91 C452 93 452 93 450.8918457 96.78442383 C450.3273955 98.42791282 449.75474222 100.06859776 449.17578125 101.70703125 C448.87310837 102.58340744 448.57043549 103.45978363 448.2585907 104.36271667 C447.28361373 107.18181552 446.29852348 109.99724787 445.3125 112.8125 C444.34613748 115.58906703 443.38196917 118.36637398 442.41996765 121.14445496 C441.82070558 122.87310802 441.21872298 124.60082164 440.61335754 126.3273468 C438.22782126 133.17874953 436.13848845 140.04991253 434 147 C306.62 147 179.24 147 48 147 C43.38 132.81 38.76 118.62 34 104 C30.23294032 92.63142478 30.23294032 92.63142478 26.43887901 81.27203751 C25.38963226 78.14259197 24.34297984 75.01228726 23.29682922 71.88180542 C20.33638974 63.02425459 17.37196895 54.16803908 14.40551758 45.3125 C12.55839678 39.79785984 10.71417607 34.2822568 8.87174416 28.76604843 C8.17874374 26.69322635 7.48460737 24.62078367 6.78928185 22.54874039 C5.8303537 19.69110956 4.87509437 16.83227692 3.9206543 13.97314453 C3.63766983 13.13295273 3.35468536 12.29276093 3.06312561 11.42710876 C1.80247149 7.63879384 0.64704555 3.95243601 0 0 Z " fill="#FA7523" transform="translate(759,1210)"/>
<path d="M0 0 C119.46 0 238.92 0 362 0 C359 11 359 11 358 14 C241.18 14 124.36 14 4 14 C0 2 0 2 0 0 Z " fill="#FC7420" transform="translate(819,1390)"/>
<path d="M0 0 C108.9 0 217.8 0 330 0 C327 11 327 11 326 14 C219.74 14 113.48 14 4 14 C0 2 0 2 0 0 Z " fill="#FE741F" transform="translate(835,1438)"/>
<path d="M0 0 C98.34 0 196.68 0 298 0 C295 11 295 11 294 14 C198.3 14 102.6 14 4 14 C0 2 0 2 0 0 Z " fill="#FE741F" transform="translate(851,1486)"/>
</svg>
